<?xml version="1.0" standalone="no"?>
<!DOCTYPE svg PUBLIC "-//W3C//DTD SVG 20010904//EN"
 "http://www.w3.org/TR/2001/REC-SVG-20010904/DTD/svg10.dtd">
<svg version="1.0" xmlns="http://www.w3.org/2000/svg"
 width="1024.000000pt" height="1024.000000pt" viewBox="0 0 1024.000000 1024.000000"
 preserveAspectRatio="xMidYMid meet">

<defs>
<clipPath id="round">
<rect width="1024" height="1024" rx="600" ry="600"/>
</clipPath>
</defs>
<g clip-path="url(#round)">
<g transform="translate(0.000000,1024.000000) scale(0.100000,-0.100000)"
fill="oklch(57.7% 0.245 27.325)" stroke="none">
<path d="M545 10234 c-11 -2 -45 -9 -75 -15 -30 -6 -93 -29 -140 -51 -155 -74
-274 -224 -314 -398 -14 -58 -16 -573 -16 -4651 0 -4534 0 -4587 20 -4663 28
-112 73 -189 161 -277 56 -57 94 -85 150 -112 152 -73 -277 -67 4783 -67 5076
0 4638 -7 4795 71 113 56 214 155 264 260 73 151 67 -295 67 4798 0 4162 -1
4599 -16 4655 -24 93 -89 209 -154 276 -61 61 -173 125 -280 158 -51 16 -349
17 -4640 18 -2522 1 -4594 0 -4605 -2z m6336 -2888 c257 -46 464 -225 545
-472 26 -80 29 -102 28 -214 0 -107 -4 -136 -27 -205 -66 -199 -203 -349 -392
-428 -105 -44 -157 -49 -495 -45 l-315 3 -75 36 c-93 44 -172 116 -247 222
-174 249 -402 387 -690 420 -224 25 -450 -37 -634 -174 -81 -60 -192 -175
-248 -257 -64 -95 -134 -158 -229 -205 l-85 -42 -324 -3 c-360 -3 -387 0 -520
62 -231 109 -375 325 -389 584 -8 127 12 219 71 340 97 196 298 346 510 381
28 5 813 9 1745 9 1381 1 1709 -1 1771 -12z m-1596 -961 c187 -49 359 -191
439 -365 58 -126 57 -85 54 -1400 l-3 -1205 -29 -84 c-70 -200 -233 -362 -426
-422 -84 -26 -239 -36 -322 -19 -235 46 -422 211 -505 445 l-28 80 -3 1200
c-3 1319 -5 1270 58 1403 81 173 225 297 415 358 87 29 257 33 350 9z m4419
-5633 c28 -66 96 -135 161 -163 30 -13 55 -26 55 -29 0 -3 -21 -14 -48 -24
-66 -28 -135 -96 -163 -161 -13 -30 -26 -55 -29 -55 -3 0 -16 25 -29 55 -28
65 -97 133 -163 161 -27 10 -48 21 -48 24 0 3 25 16 55 29 65 28 133 97 161
163 10 27 21 48 24 48 3 0 14 -21 24 -48z"/>
</g>
</g>
</svg>
